<svg width="777" height="213" viewBox="0 0 777 213" fill="none" xmlns="http://www.w3.org/2000/svg">
<mask id="mask0_121_8877" style="mask-type:alpha" maskUnits="userSpaceOnUse" x="0" y="-60" width="767" height="261">
<ellipse cx="383.5" cy="70.2729" rx="383.5" ry="130.273" fill="#D9D9D9"/>
<path d="M766.5 70.2729C766.5 88.045 755.898 105.052 736.55 120.591C717.206 136.127 689.185 150.139 654.515 161.916C585.179 185.469 489.361 200.046 383.5 200.046C277.639 200.046 181.821 185.469 112.485 161.916C77.8151 150.139 49.794 136.127 30.4504 120.591C11.1023 105.052 0.5 88.045 0.5 70.2729C0.5 52.5008 11.1023 35.4937 30.4504 19.9547C49.794 4.4193 77.8151 -9.59323 112.485 -21.3705C181.821 -44.9234 277.639 -59.5 383.5 -59.5C489.361 -59.5 585.179 -44.9234 654.515 -21.3705C689.185 -9.59323 717.206 4.4193 736.55 19.9547C755.898 35.4937 766.5 52.5008 766.5 70.2729Z" stroke="white" stroke-opacity="0.08"/>
</mask>
<g mask="url(#mask0_121_8877)">
<path d="M99.5344 86.7401H776.514M181.91 -50.4856L181.91 212.988M292.743 -50.4856L292.743 212.988M403.576 -50.4856L403.576 212.988M514.409 -50.4856V212.988M625.242 -50.4856V212.988M736.075 -50.4856V212.988M99.5344 166.815H776.514M99.5344 6.66486H776.514" stroke="white" stroke-opacity="0.08"/>
</g>
</svg>
