<svg width="30" height="30" viewBox="0 0 30 30" fill="none" xmlns="http://www.w3.org/2000/svg">
<path d="M21.9781 10.4543C22.5781 10.4543 23.165 10.5064 23.7391 10.5978V9.05863C23.7391 7.29779 22.3173 5.87602 20.5696 5.87602H17.2285V3.74658C17.2285 2.17346 15.9484 0.893311 14.3752 0.893311H9.37438C7.80126 0.893311 6.52111 2.17346 6.52111 3.74658V5.87602H3.18254C1.43459 5.87602 0 7.29779 0 9.05863V20.563C0 22.3109 1.43459 23.7456 3.18254 23.7456H11.6869C11.4653 22.8978 11.3478 22.0108 11.3478 21.0848C11.3478 15.2283 16.1216 10.4543 21.9781 10.4543ZM9.12981 3.74658C9.12981 3.61156 9.23936 3.50201 9.37438 3.50201H14.3752C14.5103 3.50201 14.6198 3.61156 14.6198 3.74658V5.87315H9.12981V3.74658Z" fill="#484337"/>
<path d="M21.9779 13.0632C17.5563 13.0632 13.9563 16.6502 13.9563 21.085C13.9563 25.5198 17.5563 29.1067 21.9779 29.1067C26.4129 29.1067 29.9999 25.5198 29.9999 21.085C29.9999 16.6502 26.4129 13.0632 21.9779 13.0632ZM24.7041 24.0719C24.2153 24.5609 23.3831 24.5897 22.8648 24.0719L21.0649 22.2719C20.8172 22.0241 20.6736 21.698 20.6736 21.3458V17.1067C20.6736 16.3763 21.2605 15.8023 21.9779 15.8023C22.7084 15.8023 23.2823 16.3763 23.2823 17.1067V20.8111L24.7041 22.2198C25.2127 22.7285 25.2127 23.5632 24.7041 24.0719Z" fill="#484337"/>
</svg>
