<svg width="41" height="34" viewBox="0 0 41 34" fill="none" xmlns="http://www.w3.org/2000/svg">
<path d="M20.6667 25.8265C23.9248 25.8265 26.566 23.1853 26.566 19.9272C26.566 16.6691 23.9248 14.0278 20.6667 14.0278C17.4086 14.0278 14.7673 16.6691 14.7673 19.9272C14.7673 23.1853 17.4086 25.8265 20.6667 25.8265Z" fill="#484337"/>
<path d="M25.5086 27.0986H15.8248C13.9191 27.0986 12.3743 28.6435 12.3743 30.5492C12.3743 32.4548 13.9191 33.9997 15.8248 33.9997H25.5086C27.4143 33.9997 28.9591 32.4548 28.9591 30.5492C28.9591 28.6435 27.4143 27.0986 25.5086 27.0986Z" fill="#484337"/>
<path d="M21.7944 0.699884L22.7214 2.57477C22.8118 2.75735 22.9452 2.91525 23.1101 3.03485C23.2751 3.15446 23.4666 3.23219 23.6682 3.26137L25.7411 3.56201C25.9731 3.59528 26.1911 3.69287 26.3705 3.84372C26.5499 3.99457 26.6834 4.19265 26.7559 4.41551C26.8285 4.63837 26.8372 4.87709 26.781 5.10462C26.7248 5.33215 26.606 5.53939 26.438 5.70285L24.938 7.16226C24.7921 7.30416 24.6829 7.47947 24.6199 7.67303C24.5569 7.86658 24.542 8.07257 24.5764 8.27319L24.9305 10.3339C24.9698 10.565 24.9437 10.8025 24.8551 11.0196C24.7665 11.2366 24.619 11.4246 24.4293 11.5622C24.2395 11.6998 24.015 11.7817 23.7812 11.7984C23.5473 11.8152 23.3135 11.7662 23.106 11.657L21.252 10.6841C21.0715 10.5894 20.8707 10.5399 20.6668 10.5399C20.463 10.5399 20.2622 10.5894 20.0817 10.6841L18.2276 11.657C18.0202 11.7662 17.7863 11.8152 17.5525 11.7984C17.3187 11.7817 17.0942 11.6998 16.9044 11.5622C16.7146 11.4246 16.5671 11.2366 16.4786 11.0196C16.39 10.8025 16.3639 10.565 16.4032 10.3339L16.7573 8.27319C16.7917 8.07257 16.7768 7.86658 16.7138 7.67303C16.6508 7.47947 16.5416 7.30416 16.3956 7.16226L14.8957 5.70285C14.7277 5.53939 14.6089 5.33215 14.5527 5.10462C14.4965 4.87709 14.5052 4.63837 14.5777 4.41551C14.6503 4.19265 14.7838 3.99457 14.9632 3.84372C15.1425 3.69287 15.3606 3.59528 15.5926 3.56201L17.6655 3.26137C17.8671 3.23219 18.0586 3.15446 18.2235 3.03485C18.3885 2.91525 18.5219 2.75735 18.6122 2.57477L19.5393 0.699884C19.6434 0.489801 19.8041 0.312983 20.0033 0.189365C20.2026 0.0657462 20.4324 0.000244141 20.6668 0.000244141C20.9013 0.000244141 21.1311 0.0657462 21.3303 0.189365C21.5296 0.312983 21.6903 0.489801 21.7944 0.699884Z" fill="#484337"/>
<path d="M8.2169 6.64446L9.14393 8.51937C9.2343 8.70196 9.36769 8.85985 9.53262 8.97946C9.69754 9.09906 9.88906 9.1768 10.0907 9.20597L12.1636 9.50662C12.3956 9.53989 12.6136 9.63748 12.793 9.78833C12.9724 9.93918 13.1059 10.1373 13.1784 10.3601C13.251 10.583 13.2596 10.8217 13.2034 11.0492C13.1472 11.2768 13.0284 11.484 12.8605 11.6475L11.3605 13.1069C11.2146 13.2488 11.1054 13.4241 11.0424 13.6176C10.9794 13.8112 10.9644 14.0172 10.9989 14.2178L11.353 16.2785C11.3923 16.5096 11.3662 16.7471 11.2776 16.9642C11.189 17.1812 11.0415 17.3692 10.8517 17.5068C10.662 17.6444 10.4375 17.7263 10.2037 17.743C9.96983 17.7598 9.73597 17.7108 9.52851 17.6016L7.67445 16.6287C7.49394 16.534 7.29315 16.4845 7.08932 16.4845C6.88548 16.4845 6.68469 16.534 6.50419 16.6287L4.65012 17.6016C4.44266 17.7108 4.20881 17.7598 3.97498 17.743C3.74116 17.7263 3.51667 17.6444 3.3269 17.5068C3.13712 17.3692 2.98961 17.1812 2.90104 16.9642C2.81247 16.7471 2.78636 16.5096 2.82566 16.2785L3.1798 14.2178C3.21424 14.0172 3.19931 13.8112 3.1363 13.6176C3.07329 13.4241 2.9641 13.2488 2.81816 13.1069L1.31816 11.6475C1.1502 11.484 1.03139 11.2768 0.975195 11.0492C0.918999 10.8217 0.927664 10.583 1.00021 10.3601C1.07275 10.1373 1.20628 9.93918 1.38564 9.78833C1.56501 9.63748 1.78305 9.53989 2.01504 9.50662L4.08794 9.20597C4.28957 9.1768 4.48109 9.09906 4.64602 8.97946C4.81094 8.85985 4.94433 8.70196 5.03471 8.51937L5.96173 6.64446C6.06585 6.43438 6.22659 6.25756 6.42582 6.13394C6.62505 6.01033 6.85485 5.94482 7.08932 5.94482C7.32378 5.94482 7.55359 6.01033 7.75282 6.13394C7.95205 6.25756 8.11279 6.43438 8.2169 6.64446Z" fill="#484337"/>
<path d="M35.3717 6.64446L36.2987 8.51937C36.3891 8.70196 36.5225 8.85985 36.6874 8.97946C36.8523 9.09906 37.0438 9.1768 37.2455 9.20597L39.3184 9.50662C39.5504 9.53989 39.7684 9.63748 39.9478 9.78833C40.1271 9.93918 40.2607 10.1373 40.3332 10.3601C40.4058 10.583 40.4144 10.8217 40.3582 11.0492C40.302 11.2768 40.1832 11.484 40.0153 11.6475L38.5153 13.1069C38.3694 13.2488 38.2602 13.4241 38.1972 13.6176C38.1342 13.8112 38.1192 14.0172 38.1537 14.2178L38.5078 16.2785C38.5471 16.5096 38.521 16.7471 38.4324 16.9642C38.3438 17.1812 38.1963 17.3692 38.0065 17.5068C37.8167 17.6444 37.5923 17.7263 37.3584 17.743C37.1246 17.7598 36.8908 17.7108 36.6833 17.6016L34.8292 16.6287C34.6487 16.534 34.4479 16.4845 34.2441 16.4845C34.0403 16.4845 33.8395 16.534 33.659 16.6287L31.8049 17.6016C31.5974 17.7108 31.3636 17.7598 31.1298 17.743C30.8959 17.7263 30.6715 17.6444 30.4817 17.5068C30.2919 17.3692 30.1444 17.1812 30.0558 16.9642C29.9673 16.7471 29.9411 16.5096 29.9804 16.2785L30.3345 14.2178C30.369 14.0172 30.3541 13.8112 30.291 13.6176C30.228 13.4241 30.1188 13.2488 29.9729 13.1069L28.4729 11.6475C28.305 11.484 28.1862 11.2768 28.13 11.0492C28.0738 10.8217 28.0824 10.583 28.155 10.3601C28.2275 10.1373 28.3611 9.93918 28.5404 9.78833C28.7198 9.63748 28.9378 9.53989 29.1698 9.50662L31.2427 9.20597C31.4444 9.1768 31.6359 9.09906 31.8008 8.97946C31.9657 8.85985 32.0991 8.70196 32.1895 8.51937L33.1165 6.64446C33.2206 6.43438 33.3814 6.25756 33.5806 6.13394C33.7798 6.01033 34.0096 5.94482 34.2441 5.94482C34.4786 5.94482 34.7084 6.01033 34.9076 6.13394C35.1068 6.25756 35.2676 6.43438 35.3717 6.64446Z" fill="#484337"/>
</svg>
