<svg width="33" height="26" viewBox="0 0 33 26" fill="none" xmlns="http://www.w3.org/2000/svg">
<path d="M30.8103 8.33504C29.7134 7.53348 28.1806 7.59677 26.8517 7.87801V5.38898C26.8517 2.1687 20.3971 0.432007 14.3292 0.432007C8.2613 0.432007 1.81372 2.1687 1.81372 5.38898V9.98736C1.81372 16.892 7.42459 22.5028 14.3292 22.5028C18.0979 22.5028 21.4729 20.8224 23.7721 18.1857C27.0134 17.2295 32.1954 15.099 32.104 11.2389C32.0829 9.91705 31.647 8.93972 30.8103 8.33504ZM14.3292 8.93972C7.97302 8.93972 3.21995 7.0624 3.21995 5.38898C3.21995 3.71556 7.97302 1.83824 14.3292 1.83824C20.6924 1.83824 25.4455 3.71556 25.4455 5.38898C25.4455 7.0624 20.6924 8.93972 14.3292 8.93972ZM25.1642 16.2381C26.233 14.3959 26.8517 12.2655 26.8517 9.98736V9.3194C28.2439 8.97487 29.3689 9.02409 29.9876 9.47409C30.4517 9.81158 30.6837 10.3952 30.6978 11.267C30.754 13.6506 27.6462 15.3029 25.1642 16.2381Z" fill="#484337"/>
<path d="M25.3961 18.4033C22.8508 21.736 18.843 23.9016 14.329 23.9016C9.81503 23.9016 5.81429 21.736 3.26901 18.3962C1.45497 18.9869 0.562012 19.7251 0.562012 20.6462C0.562012 23.086 7.5088 25.568 14.329 25.568C21.1493 25.568 28.0961 23.086 28.0961 20.6462C28.0961 19.7251 27.2031 18.9869 25.3961 18.4033Z" fill="#484337"/>
</svg>
