<svg width="39" height="38" viewBox="0 0 39 38" fill="none" xmlns="http://www.w3.org/2000/svg">
<path d="M16.9295 31.8446C17.0719 31.9949 17.151 32.1927 17.1431 32.4063C17.1431 32.612 17.0561 32.8177 16.8979 32.9601L11.8582 37.7783C11.6999 37.9286 11.51 37.9998 11.3123 37.9998C11.0986 37.9998 10.8929 37.9207 10.7347 37.7546L0.900534 27.4536C0.750213 27.3033 0.671096 27.1055 0.679008 26.8998C0.686919 26.6862 0.773947 26.4884 0.924268 26.346L5.96398 21.5199C6.28045 21.2192 6.78679 21.2271 7.08744 21.5436L16.9295 31.8446Z" fill="#484337"/>
<path d="M38.6549 18.3707C38.647 19.0748 38.3622 19.7315 37.8558 20.2141L29.3666 28.3314C28.2353 29.4074 26.7479 30.0008 25.1814 30.0008H18.8995C18.3774 30.0008 17.966 30.072 17.5625 30.2223L9.50842 21.7806L11.7237 19.7631C12.8788 18.7109 14.3741 18.1254 15.9327 18.1254H22.436C23.963 18.1254 25.2051 19.3755 25.2051 20.8945C25.2051 21.3217 25.1023 21.7252 24.9282 22.0813H26.8507C27.634 22.0813 28.3856 21.7964 28.9711 21.2664L34.3193 16.4403C35.332 15.4988 36.9143 15.5304 37.8954 16.5115C38.3938 17.0178 38.6628 17.6745 38.6549 18.3707Z" fill="#484337"/>
<path d="M16.5022 14.2412H29.1608C29.596 14.2412 29.952 13.8852 29.952 13.45V11.1715C29.952 9.49423 28.8918 8.03058 27.3333 7.46094C26.3443 9.07491 24.7382 10.2854 22.8315 10.2854C20.9248 10.2854 19.3188 9.07491 18.3298 7.46094C16.7712 8.02266 15.7111 9.48632 15.7111 11.1715V13.45C15.7111 13.8852 16.0671 14.2412 16.5022 14.2412Z" fill="#484337"/>
<path d="M22.8316 8.70292C25.0626 8.70292 26.7874 6.14747 26.7874 3.95594C26.7874 1.77233 25.0152 0.00012207 22.8316 0.00012207C20.6479 0.00012207 18.8757 1.77233 18.8757 3.95594C18.8757 6.13955 20.6005 8.70292 22.8316 8.70292Z" fill="#484337"/>
</svg>
