<svg width="39" height="38" viewBox="0 0 39 38" fill="none" xmlns="http://www.w3.org/2000/svg">
<g clip-path="url(#clip0_61_392)">
<path d="M15.9993 22.9331C15.9993 22.4098 15.6778 21.9616 15.2218 21.7747H1.11102C0.655025 21.9617 0.333496 22.4098 0.333496 22.9331C0.333496 27.2579 3.84728 30.7763 8.16649 30.7763C12.4856 30.7763 15.9993 27.2579 15.9993 22.9331Z" fill="#484337"/>
<path d="M37.556 21.7747H23.4453C22.9893 21.9616 22.6677 22.4098 22.6677 22.9331C22.6677 27.2579 26.1816 30.7763 30.5007 30.7763C34.8199 30.7763 38.3337 27.2579 38.3337 22.9331C38.3336 22.4098 38.012 21.9617 37.556 21.7747Z" fill="#484337"/>
<path d="M25.5296 34.2713H20.5851V9.92479H28.6021L24.3283 19.897H27.052L30.5004 11.8506L33.9488 19.897H36.6725L32.1977 9.45612C33.1668 8.87652 33.8174 7.81675 33.8174 6.60766C33.8174 4.77854 32.3294 3.29053 30.5003 3.29053C29.8091 3.29053 29.2486 3.85106 29.2486 4.54222C29.2486 5.23339 29.8091 5.79392 30.5003 5.79392C30.949 5.79392 31.3139 6.15908 31.3139 6.60753C31.3139 7.05611 30.9489 7.42114 30.5003 7.42114H20.585V2.47692C20.585 1.78575 20.0246 1.22522 19.3333 1.22522C18.642 1.22522 18.0816 1.78575 18.0816 2.47692V7.42139H8.16639C7.71768 7.42139 7.35278 7.05624 7.35278 6.60778C7.35278 6.15921 7.71781 5.79418 8.16639 5.79418C8.85755 5.79418 9.41809 5.23364 9.41809 4.54248C9.41809 3.85131 8.85755 3.29078 8.16639 3.29078C6.33727 3.29078 4.84926 4.7788 4.84926 6.60791C4.84926 7.817 5.49986 8.87665 6.46893 9.45638L1.99414 19.8973H4.71786L8.16626 11.8509L11.6147 19.8973H14.3384L10.0647 9.92479H18.0817V34.2713H13.1374C12.4461 34.2713 11.8857 34.8317 11.8857 35.523C11.8857 36.2141 12.4461 36.7747 13.1374 36.7747H25.5296C26.2209 36.7747 26.7813 36.2141 26.7813 35.523C26.7813 34.8317 26.2209 34.2713 25.5296 34.2713Z" fill="#484337"/>
</g>
<defs>
<clipPath id="clip0_61_392">
<rect width="38" height="38" fill="white" transform="translate(0.333496)"/>
</clipPath>
</defs>
</svg>
