<svg width="30" height="32" viewBox="0 0 30 32" fill="none" xmlns="http://www.w3.org/2000/svg">
<path fill-rule="evenodd" clip-rule="evenodd" d="M15 2.23256C8.34392 2.23256 2.92578 7.53704 2.73591 14.1525C3.48609 13.6731 4.3773 13.3953 5.33333 13.3953C8.00272 13.3953 10.1667 15.5611 10.1667 18.2326V21.2093C10.1667 23.8808 8.00272 26.0465 5.33333 26.0465C2.66395 26.0465 0.5 23.8808 0.5 21.2093V18.6047V18.2326V14.5116C0.5 6.49707 6.99187 0 15 0C23.0082 0 29.5 6.49707 29.5 14.5116V18.2326V18.6047V18.9767V21.2093V21.9535C29.5 27.502 25.0056 32 19.4615 32H15C14.384 32 13.8846 31.5002 13.8846 30.8837C13.8846 30.2672 14.384 29.7674 15 29.7674H19.4615C22.3877 29.7674 24.9379 28.1564 26.2749 25.7724C25.7718 25.9499 25.2305 26.0465 24.6667 26.0465C21.9973 26.0465 19.8333 23.8808 19.8333 21.2093V18.2326C19.8333 15.5611 21.9973 13.3953 24.6667 13.3953C25.6226 13.3953 26.5139 13.6731 27.264 14.1525C27.0743 7.53704 21.656 2.23256 15 2.23256Z" fill="#484337"/>
</svg>
