<svg width="44" height="48" viewBox="0 0 44 48" fill="none" xmlns="http://www.w3.org/2000/svg">
<path fill-rule="evenodd" clip-rule="evenodd" d="M6.6 48C2.95493 48 0 45.0696 0 41.4545V6.54545C0 2.93051 2.95493 0 6.6 0H37.4C41.0452 0 44 2.93051 44 6.54545V41.4545C44 45.0696 41.0452 48 37.4 48H6.6ZM2.2 41.4545V10.9091H41.8V41.4545C41.8 43.8646 39.8301 45.8182 37.4 45.8182H6.6C4.16995 45.8182 2.2 43.8646 2.2 41.4545ZM2.2 8.72727H41.8V6.54545C41.8 4.13548 39.8301 2.18182 37.4 2.18182H6.6C4.16995 2.18182 2.2 4.13548 2.2 6.54545V8.72727ZM9.9 19.6364C9.29249 19.6364 8.8 20.1249 8.8 20.7273C8.8 21.3297 9.29249 21.8182 9.9 21.8182H34.1C34.7074 21.8182 35.2 21.3297 35.2 20.7273C35.2 20.1249 34.7074 19.6364 34.1 19.6364H9.9ZM9.9 28.3636C9.29249 28.3636 8.8 28.8521 8.8 29.4545C8.8 30.0569 9.29249 30.5455 9.9 30.5455H34.1C34.7074 30.5455 35.2 30.0569 35.2 29.4545C35.2 28.8521 34.7074 28.3636 34.1 28.3636H9.9ZM8.8 38.1818C8.8 37.5794 9.29249 37.0909 9.9 37.0909H23.1C23.7074 37.0909 24.2 37.5794 24.2 38.1818C24.2 38.7842 23.7074 39.2727 23.1 39.2727H9.9C9.29249 39.2727 8.8 38.7842 8.8 38.1818Z" fill="#FFCD00"/>
</svg>
