<svg width="44" height="53" viewBox="0 0 44 53" fill="none" xmlns="http://www.w3.org/2000/svg">
<path fill-rule="evenodd" clip-rule="evenodd" d="M15.8889 0C13.8896 0 12.1145 0.946243 10.9996 2.40909H7.33333C3.28326 2.40909 0 5.64486 0 9.63636V45.7727C0 49.7644 3.28326 53 7.33333 53H36.6667C40.7169 53 44 49.7644 44 45.7727V9.63636C44 5.64486 40.7169 2.40909 36.6667 2.40909H33.0005C31.8856 0.946243 30.1104 0 28.1111 0H15.8889ZM28.1111 12.0455H15.8889C12.5138 12.0455 9.77778 9.34898 9.77778 6.02273C9.77778 5.61022 9.81987 5.20739 9.90002 4.81818H7.33333C4.63327 4.81818 2.44444 6.97535 2.44444 9.63636V45.7727C2.44444 48.4338 4.63327 50.5909 7.33333 50.5909H36.6667C39.3668 50.5909 41.5556 48.4338 41.5556 45.7727V9.63636C41.5556 6.97535 39.3668 4.81818 36.6667 4.81818H34.1C34.1802 5.20739 34.2222 5.61022 34.2222 6.02273C34.2222 9.34898 31.4862 12.0455 28.1111 12.0455ZM15.8889 9.63636H28.1111C30.1361 9.63636 31.7778 8.01849 31.7778 6.02273C31.7778 4.02696 30.1361 2.40909 28.1111 2.40909H15.8889C13.8638 2.40909 12.2222 4.02696 12.2222 6.02273C12.2222 8.01849 13.8638 9.63636 15.8889 9.63636ZM31.4199 23.7382C31.8971 23.2677 31.8971 22.505 31.4199 22.0345C30.9425 21.5642 30.1686 21.5642 29.6912 22.0345L19.5556 32.0236L14.3087 26.8527C13.8314 26.3824 13.0575 26.3824 12.5802 26.8529C12.1029 27.3232 12.1029 28.0859 12.5802 28.5564L18.6914 34.5789C19.1686 35.0494 19.9425 35.0494 20.4199 34.5789L31.4199 23.7382Z" fill="#FFCD00"/>
</svg>
