<svg width="66" height="13" viewBox="0 0 66 13" fill="none" xmlns="http://www.w3.org/2000/svg">
<path fill-rule="evenodd" clip-rule="evenodd" d="M62.0316 7.98479C62.187 8.1205 62.2637 8.19728 62.3602 8.27406C63.4047 9.16329 64.4493 10.0543 65.4742 10.9435C65.5314 11.0007 65.6296 11.0792 65.6867 11.1364C66.0742 11.5238 66.1117 12.0845 65.7457 12.4702C65.3975 12.8577 64.8564 12.9148 64.4493 12.5863C63.7136 11.9863 63.0173 11.3685 62.303 10.7685C61.2781 9.89717 60.2728 9.02758 59.2461 8.15799C59.1693 8.08121 59.0532 8.00265 58.8979 7.88658C58.8979 8.09907 58.8782 8.23478 58.8782 8.37048C58.8782 10.8275 58.8782 8.99008 58.8782 11.4453C58.8782 11.5613 58.8782 11.6774 58.8782 11.7935C58.839 12.3345 58.4336 12.722 57.8908 12.6827C57.3694 12.6631 57.0212 12.2756 57.0016 11.7345C57.0016 11.6185 57.0016 11.5024 57.0016 11.3864C57.0016 6.53132 57.0016 5.97064 57.0016 1.1156C57.0016 0.960256 57.0016 0.82455 57.0016 0.670989C57.0016 0.322798 57.0409 0.263873 57.3694 0.263873C57.814 0.244231 58.2586 0.244231 58.7033 0.244231C59.7675 0.244231 60.8692 0.283514 61.9334 0.22459C63.7315 0.147809 65.7439 1.59771 65.9367 3.7065C66.1117 5.60281 64.8154 7.4009 62.8798 7.78838C62.6316 7.84909 62.3602 7.92587 62.0316 7.98479ZM58.764 6.4956C58.88 6.51525 58.9568 6.51525 59.0157 6.51525C59.905 6.51525 60.8138 6.51525 61.7048 6.51525C61.9566 6.51525 62.228 6.4956 62.478 6.39918C63.3101 6.14741 63.9672 5.64566 64.1797 4.75465C64.5475 3.22618 63.4065 1.83341 61.8388 1.83341C60.9103 1.83341 60.0014 1.83341 59.0532 1.83341C58.9372 1.83341 58.8408 1.85305 58.7247 1.85305C58.764 3.39938 58.764 4.92785 58.764 6.4956Z" fill="#FFCD00"/>
<path fill-rule="evenodd" clip-rule="evenodd" d="M20.8754 7.11319C19.0951 7.11319 17.3738 7.11319 15.6132 7.11319C15.6132 7.26854 15.5936 7.40424 15.5936 7.53816C15.5936 8.89165 15.5936 10.2273 15.5936 11.5808C15.5936 11.7557 15.5936 11.9289 15.5543 12.0647C15.4186 12.4718 14.9936 12.7218 14.5865 12.7039C14.1419 12.6646 13.774 12.3164 13.7169 11.8718C13.6973 11.7557 13.7169 11.6593 13.7169 11.5433C13.7169 6.7275 13.6973 6.14718 13.6973 1.34929C13.6973 1.15644 13.7169 0.961812 13.774 0.788609C13.9294 0.381493 14.3544 0.149365 14.799 0.20829C15.2043 0.265429 15.5525 0.613621 15.5918 1.04038C15.6114 1.17608 15.5918 1.29215 15.5918 1.42785C15.5918 3.90448 15.6114 2.14388 15.6114 4.61871C15.6114 4.77406 15.6311 4.90798 15.6311 5.04369C15.9596 5.12047 20.5254 5.12047 20.8736 5.04369C20.8736 4.92762 20.8932 4.81156 20.8932 4.67585C20.8932 3.592 20.8932 2.49028 20.8932 1.40643C20.8932 1.29036 20.8932 1.19394 20.8932 1.07788C20.9325 0.593979 21.3003 0.226146 21.7824 0.20829C22.2663 0.188649 22.711 0.556481 22.7681 1.04038C22.7877 1.15644 22.7681 1.25286 22.7681 1.36893C22.7681 4.75442 22.7681 8.12027 22.7681 11.5058C22.7681 11.6218 22.7681 11.7182 22.7681 11.8343C22.711 12.3182 22.2842 12.7039 21.8003 12.686C21.3164 12.6664 20.9289 12.2807 20.8718 11.7968C20.8718 11.6807 20.8718 11.5843 20.8718 11.4683C20.8718 10.1719 20.8718 8.83808 20.8718 7.54173C20.8754 7.42389 20.8754 7.28818 20.8754 7.11319Z" fill="#FFCD00"/>
<path fill-rule="evenodd" clip-rule="evenodd" d="M1.77856 11.8343C1.27859 11.5433 0.242948 10.6951 0.0768877 10.113C-0.0391761 9.76483 -0.0588177 9.37736 0.269732 9.06845C0.637565 8.72026 1.1411 8.58455 1.64286 8.9131C2.12675 9.26129 2.35888 9.70591 2.76421 10.113C3.34453 10.6933 4.09805 11.0023 4.9105 11.0987C5.92829 11.2022 7.14428 11.1076 7.9853 10.4612C8.44955 9.93804 8.58526 9.20415 8.02458 8.70062C7.75317 8.46849 7.40498 8.2935 7.05678 8.13994C6.20863 7.77211 5.3194 7.52034 4.42839 7.28821C3.47488 7.06144 2.3321 6.76682 1.46965 6.30256C0.792912 5.93473 0.405437 5.35441 0.289374 4.62053C-0.330228 0.161894 5.21941 -0.459494 8.31742 1.29218C8.70489 1.50466 9.07094 1.83321 9.40127 2.12426C9.65304 2.33675 9.84589 2.64566 9.94231 2.97599C10.0387 3.38311 9.84589 3.80808 9.34235 3.92415C8.91738 4.02057 8.5299 3.88486 8.22099 3.55631C8.16207 3.49917 8.10493 3.42061 8.06565 3.36347C6.99607 1.73858 4.00341 1.52073 2.66957 2.74387C2.32138 3.20812 2.18568 3.82772 2.64993 4.40804C3.41417 5.13121 5.91936 5.5544 7.00143 5.82045C7.65853 5.99365 8.29777 6.20792 8.89774 6.55611C9.6709 6.96323 10.2316 7.56141 10.4262 8.43278C10.6583 9.49699 10.4262 10.5023 9.59412 11.2754C7.54247 13.1146 4.10698 13.2467 1.77856 11.8343Z" fill="#FFCD00"/>
<path fill-rule="evenodd" clip-rule="evenodd" d="M32.1499 0.267578C35.5675 0.267578 38.3388 3.03882 38.3388 6.45646C38.3388 6.47074 38.3388 6.48681 38.3388 6.5011C38.337 6.80108 38.1209 7.05106 37.8352 7.10641V7.11713H37.7156H37.1656H27.1306H26.7556H26.5806C26.2396 7.11713 25.961 6.84036 25.9592 6.49931C25.9592 6.48502 25.9592 6.46895 25.9592 6.45467C25.961 3.03882 28.7323 0.267578 32.1499 0.267578ZM36.3157 5.05119C35.73 3.31202 34.0855 2.06032 32.1499 2.06032C30.2143 2.06032 28.5698 3.31202 27.9841 5.05119H36.3157Z" fill="#FFCD00"/>
<path fill-rule="evenodd" clip-rule="evenodd" d="M37.1141 10.1545C35.9856 11.6669 34.1822 12.6472 32.1502 12.6472C30.1181 12.6472 28.3147 11.6669 27.1862 10.1545C27.0755 10.0063 27.038 9.83663 27.0755 9.65628C27.113 9.47594 27.2148 9.33488 27.3737 9.24381L27.8522 8.96704C28.1236 8.80991 28.4665 8.87776 28.6575 9.12775C29.461 10.1759 30.7253 10.8526 32.1502 10.8526C33.5733 10.8526 34.8393 10.1759 35.6428 9.12775C35.8338 8.87776 36.1749 8.80991 36.4481 8.96704L36.9266 9.24381C37.0855 9.33666 37.1873 9.47594 37.2248 9.65628C37.2623 9.83663 37.2248 10.0063 37.1141 10.1545Z" fill="#FFCD00"/>
<path fill-rule="evenodd" clip-rule="evenodd" d="M47.6776 0.26709C51.0952 0.26709 53.8665 3.03834 53.8665 6.45597C53.8665 6.47025 53.8665 6.48632 53.8665 6.50061C53.8647 6.80059 53.6486 7.05057 53.3629 7.10592V7.11664H53.2433H52.6933H42.6583H42.2833H42.1083C41.7673 7.11664 41.4887 6.83987 41.4869 6.49882C41.4869 6.48454 41.4869 6.46847 41.4869 6.45418C41.4887 3.03834 44.26 0.26709 47.6776 0.26709ZM51.8434 5.0507C51.2577 3.31153 49.6132 2.05983 47.6776 2.05983C45.742 2.05983 44.0975 3.31153 43.5118 5.0507H51.8434Z" fill="#FFCD00"/>
<path fill-rule="evenodd" clip-rule="evenodd" d="M52.6416 10.154C51.5131 11.6664 49.7096 12.6467 47.6776 12.6467C45.6456 12.6467 43.8422 11.6664 42.7137 10.154C42.603 10.0058 42.5655 9.83614 42.603 9.65579C42.6405 9.47545 42.7422 9.33439 42.9012 9.24332L43.3797 8.96655C43.6511 8.80942 43.9939 8.87727 44.185 9.12726C44.9885 10.1754 46.2527 10.8521 47.6776 10.8521C49.1007 10.8521 50.3667 10.1754 51.1703 9.12726C51.3613 8.87727 51.7024 8.80942 51.9756 8.96655L52.4541 9.24332C52.613 9.33617 52.7148 9.47545 52.7523 9.65579C52.7898 9.83614 52.7523 10.0058 52.6416 10.154Z" fill="#FFCD00"/>
</svg>
