<svg width="56" height="56" viewBox="0 0 56 56" fill="none" xmlns="http://www.w3.org/2000/svg">
<rect x="1" y="1" width="54" height="54" rx="27" stroke="#FFCD00" stroke-width="2"/>
<path fill-rule="evenodd" clip-rule="evenodd" d="M36.8575 19.1331C34.5074 16.7915 31.382 15.5014 28.0523 15.5C21.1911 15.5 15.6072 21.0571 15.6044 27.8872C15.6035 30.0706 16.1766 32.202 17.266 34.0806L15.5 40.5L22.0988 38.7773C23.917 39.7644 25.964 40.2845 28.0472 40.2852H28.0524C34.9128 40.2852 40.4974 34.7276 40.5 27.8972C40.5014 24.5869 39.2078 21.4746 36.8575 19.1331ZM28.0523 38.193H28.048C26.1916 38.1923 24.3709 37.6957 22.7822 36.7578L22.4045 36.5345L18.4887 37.5569L19.5339 33.7573L19.2878 33.3677C18.2521 31.7283 17.7052 29.8335 17.7061 27.888C17.7083 22.211 22.3496 17.5923 28.0564 17.5923C30.8199 17.5932 33.4176 18.6656 35.3709 20.6118C37.3242 22.5581 38.3993 25.1451 38.3984 27.8964C38.396 33.5739 33.7549 38.193 28.0523 38.193ZM33.7273 30.4814C33.4164 30.3264 31.8872 29.5778 31.602 29.4743C31.3171 29.371 31.1095 29.3196 30.9024 29.6293C30.6949 29.9391 30.099 30.6364 29.9174 30.8429C29.7359 31.0495 29.5547 31.0754 29.2436 30.9204C28.9325 30.7655 27.9304 30.4385 26.7423 29.384C25.8178 28.5632 25.1936 27.5496 25.0121 27.2398C24.8308 26.9297 25.0105 26.7784 25.1485 26.6081C25.4852 26.192 25.8224 25.7557 25.926 25.5493C26.0298 25.3427 25.9778 25.1619 25.9 25.007C25.8224 24.8521 25.2003 23.3285 24.9412 22.7086C24.6886 22.1052 24.4324 22.1867 24.2413 22.1772C24.0601 22.1682 23.8527 22.1664 23.6452 22.1664C23.4379 22.1664 23.1009 22.2438 22.8157 22.5538C22.5307 22.8637 21.7273 23.6125 21.7273 25.1361C21.7273 26.6597 22.8418 28.1315 22.9973 28.3381C23.1527 28.5447 25.1905 31.6713 28.3105 33.0119C29.0526 33.3311 29.6318 33.5214 30.0836 33.6641C30.8288 33.8997 31.5066 33.8664 32.0426 33.7867C32.6403 33.6978 33.8826 33.0378 34.1421 32.3149C34.4012 31.5918 34.4012 30.9721 34.3233 30.8429C34.2457 30.7138 34.0383 30.6364 33.7273 30.4814Z" fill="#FFCD00"/>
</svg>
