<svg width="56" height="56" viewBox="0 0 56 56" fill="none" xmlns="http://www.w3.org/2000/svg">
<rect x="1" y="1" width="54" height="54" rx="27" stroke="#FFCD00" stroke-width="2"/>
<g clip-path="url(#clip0_61_235)">
<path d="M36.1747 26.1516C36.2023 22.9089 33.4404 19.9362 30.0181 19.5251C29.95 19.517 29.8759 19.5047 29.7974 19.4917C29.6279 19.4637 29.4527 19.4348 29.2759 19.4348C28.5745 19.4348 28.387 19.9275 28.3377 20.2214C28.2897 20.5071 28.3354 20.747 28.4735 20.9348C28.7058 21.2507 29.1145 21.3067 29.4428 21.3517C29.539 21.365 29.6298 21.3773 29.7058 21.3944C32.7807 22.0815 33.816 23.1617 34.322 26.2104C34.3344 26.2849 34.3399 26.3767 34.3459 26.474C34.3679 26.8385 34.4139 27.5967 35.2291 27.5967H35.2292C35.297 27.5967 35.3699 27.5908 35.4459 27.5792C36.2049 27.4639 36.1812 26.7708 36.1697 26.4378C36.1665 26.344 36.1634 26.2553 36.1714 26.1963C36.1735 26.1815 36.1746 26.1665 36.1747 26.1516Z" fill="#FFCD00"/>
<path d="M29.0769 18.3349C29.168 18.3414 29.2542 18.3477 29.326 18.3587C34.3752 19.1352 36.6973 21.5275 37.3408 26.6162C37.3517 26.7027 37.3534 26.8082 37.3552 26.9199C37.3616 27.3175 37.3749 28.1446 38.2631 28.1617L38.2906 28.162C38.5692 28.162 38.7908 28.078 38.9493 27.9121C39.2258 27.6229 39.2065 27.1933 39.1909 26.848C39.1872 26.7633 39.1835 26.6835 39.1844 26.6136C39.2486 21.4092 34.7436 16.6899 29.5439 16.5144C29.5223 16.5136 29.5017 16.5148 29.4809 16.5177C29.4707 16.5192 29.4518 16.5211 29.4194 16.5211C29.3675 16.5211 29.3037 16.5166 29.2361 16.512C29.1543 16.5064 29.0616 16.5 28.9676 16.5C28.1395 16.5 27.9821 17.0886 27.9619 17.4394C27.9155 18.2503 28.6999 18.3074 29.0769 18.3349Z" fill="#FFCD00"/>
<path d="M37.0972 33.1931C36.9898 33.1111 36.8788 33.0262 36.7749 32.9425C36.2236 32.4988 35.6371 32.0899 35.0699 31.6944C34.9522 31.6124 34.8345 31.5303 34.7172 31.4481C33.9906 30.9377 33.3374 30.6897 32.7203 30.6897C31.889 30.6897 31.1643 31.149 30.5662 32.0546C30.3012 32.4561 29.9797 32.6513 29.5835 32.6513C29.3492 32.6513 29.083 32.5845 28.7923 32.4526C26.4471 31.3891 24.7725 29.7585 23.8148 27.6061C23.3519 26.5658 23.502 25.8858 24.3167 25.3324C24.7793 25.0184 25.6405 24.4338 25.5795 23.3144C25.5104 22.0432 22.7055 18.2183 21.5238 17.7838C21.0234 17.5998 20.4977 17.5981 19.9584 17.7796C18.5998 18.2363 17.6249 19.0383 17.1388 20.0989C16.669 21.1237 16.6902 22.327 17.2001 23.5787C18.6743 27.1977 20.7468 30.353 23.3605 32.9568C25.9188 35.5056 29.0631 37.5935 32.7061 39.1621C33.0345 39.3034 33.3789 39.3805 33.6304 39.4367C33.7161 39.456 33.7901 39.4724 33.844 39.4872C33.8737 39.4953 33.9043 39.4996 33.9349 39.4999L33.9637 39.5001C33.9637 39.5001 33.9637 39.5001 33.9638 39.5001C35.6773 39.5001 37.7346 37.9343 38.3665 36.1493C38.92 34.5863 37.9093 33.8138 37.0972 33.1931Z" fill="#FFCD00"/>
<path d="M29.8349 22.4689C29.5415 22.4763 28.931 22.4915 28.7168 23.1132C28.6166 23.4038 28.6286 23.6561 28.7525 23.8631C28.9344 24.1668 29.2828 24.2599 29.5997 24.311C30.7491 24.4954 31.3394 25.131 31.4575 26.311C31.5123 26.8612 31.8828 27.2454 32.3585 27.2454C32.3937 27.2454 32.4297 27.2433 32.4655 27.239C33.0376 27.1709 33.315 26.7505 33.2899 25.9897C33.299 25.1956 32.8835 24.2941 32.1767 23.576C31.4675 22.8557 30.6125 22.4501 29.8349 22.4689Z" fill="#FFCD00"/>
</g>
<defs>
<clipPath id="clip0_61_235">
<rect width="23" height="23" fill="white" transform="translate(16.5 16.5)"/>
</clipPath>
</defs>
</svg>
