<svg width="56" height="56" viewBox="0 0 56 56" fill="none" xmlns="http://www.w3.org/2000/svg">
<rect x="1" y="1" width="54" height="54" rx="27" stroke="#FFCD00" stroke-width="2"/>
<g clip-path="url(#clip0_61_242)">
<path d="M39.4131 32.0457C38.8688 31.3923 38.2502 30.8067 37.652 30.2404C37.4393 30.039 37.2194 29.8307 37.0074 29.6237C36.3987 29.0286 36.3766 28.805 36.8585 28.129C37.1919 27.6631 37.5454 27.1966 37.8872 26.7453C38.1973 26.336 38.518 25.9126 38.8253 25.4879L38.8884 25.4006C39.4758 24.5878 40.0833 23.7474 40.4066 22.7336C40.4905 22.4661 40.5787 22.0725 40.3771 21.7434C40.1757 21.4145 39.785 21.3142 39.5085 21.2673C39.3718 21.2441 39.236 21.241 39.11 21.241L35.2633 21.2382L35.2315 21.2379C34.6499 21.2379 34.2579 21.512 34.0333 22.0759C33.8189 22.6147 33.5834 23.1885 33.3146 23.7341C32.7797 24.8204 32.1004 26.0717 31.1174 27.1152L31.0758 27.1596C30.9597 27.2844 30.8282 27.4256 30.7321 27.4256C30.7173 27.4256 30.7013 27.4228 30.6831 27.4171C30.4795 27.3378 30.3429 26.8448 30.3491 26.6156C30.3491 26.6124 30.3492 26.6092 30.3492 26.6061L30.3465 22.16C30.3465 22.1446 30.3454 22.1293 30.3434 22.1141C30.2456 21.3913 30.0288 20.9414 29.2098 20.781C29.188 20.7767 29.1658 20.7745 29.1436 20.7745L25.1438 20.7745C24.4921 20.7745 24.1331 21.0394 23.7955 21.4358C23.7044 21.5418 23.5148 21.7624 23.6088 22.03C23.7042 22.3016 24.0137 22.3597 24.1146 22.3786C24.615 22.4738 24.897 22.7799 24.9769 23.3147C25.1164 24.2434 25.1335 25.2347 25.0309 26.4343C25.0022 26.7677 24.9456 27.0252 24.8523 27.2452C24.8306 27.2965 24.7538 27.4641 24.6754 27.4642C24.6505 27.4642 24.5784 27.4544 24.4472 27.364C24.1369 27.1514 23.9099 26.8481 23.6452 26.4734C22.7449 25.201 21.9893 23.7992 21.3348 22.1871C21.0921 21.5937 20.6389 21.2615 20.0579 21.2517C19.4196 21.242 18.8409 21.2373 18.2889 21.2373C17.6859 21.2373 17.1268 21.2429 16.5808 21.2542C16.1134 21.2625 15.7901 21.4026 15.62 21.671C15.4496 21.9395 15.4607 22.2924 15.653 22.7194C17.1921 26.141 18.5875 28.6288 20.1778 30.7863C21.2921 32.2959 22.4098 33.3408 23.6948 34.0745C25.0486 34.849 26.5658 35.2255 28.333 35.2255C28.5333 35.2255 28.7404 35.2206 28.9493 35.2108C29.9761 35.1608 30.357 34.7892 30.4052 33.7894C30.4281 33.2784 30.484 32.7426 30.7352 32.2856C30.8937 31.9977 31.0415 31.9977 31.0901 31.9977C31.1837 31.9977 31.2997 32.0407 31.4243 32.1215C31.6478 32.2673 31.8395 32.4628 31.9966 32.6335C32.1445 32.7957 32.2907 32.9595 32.4371 33.1235C32.7529 33.4772 33.0795 33.843 33.4207 34.1899C34.1674 34.9496 34.9901 35.2838 35.935 35.2113H39.4618C39.4693 35.2113 39.4769 35.211 39.4844 35.2105C39.8358 35.1873 40.1402 34.9924 40.3194 34.6757C40.5415 34.2834 40.537 33.7829 40.3075 33.3366C40.047 32.8319 39.7091 32.4007 39.4131 32.0457Z" fill="#FFCD00"/>
</g>
<defs>
<clipPath id="clip0_61_242">
<rect width="25" height="25" fill="white" transform="translate(15.5 15.5)"/>
</clipPath>
</defs>
</svg>
