<svg width="56" height="56" viewBox="0 0 56 56" fill="none" xmlns="http://www.w3.org/2000/svg">
<rect x="1" y="1" width="54" height="54" rx="27" stroke="#FFCD00" stroke-width="2"/>
<path d="M39.9321 26.6431C39.6235 23.5688 38.3176 20.7129 36.2468 18.5839C34.176 16.4549 31.4748 15.1911 28.6242 15.0175C27.0244 14.9276 25.4242 15.1854 23.9178 15.7759C22.4114 16.3664 21.0295 17.2775 19.8533 18.4556C18.6772 19.6337 17.7307 21.0549 17.0696 22.6354C16.4085 24.2159 16.0463 25.9238 16.0041 27.6583C15.962 29.3929 16.2409 31.119 16.8244 32.7349C17.4079 34.3509 18.2842 35.824 19.4015 37.0674C20.5189 38.3108 21.8547 39.2993 23.3304 39.9747C24.806 40.6501 26.3915 40.9987 27.9935 41C28.3914 41 28.773 40.8288 29.0544 40.524C29.3357 40.2193 29.4938 39.806 29.4938 39.375C29.4938 38.944 29.3357 38.5307 29.0544 38.226C28.773 37.9212 28.3914 37.75 27.9935 37.75C25.6069 37.7471 23.3189 36.719 21.6313 34.8911C19.9437 33.0633 18.9945 30.585 18.9918 28C18.9918 26.6761 19.2408 25.3661 19.7234 24.1498C20.2061 22.9335 20.9124 21.8365 21.7993 20.9255C22.6862 20.0144 23.735 19.3086 24.8819 18.8509C26.0289 18.3933 27.2498 18.1934 28.4704 18.2635C30.0484 18.3538 31.5767 18.8925 32.9016 19.8254C34.2265 20.7583 35.3013 22.0525 36.018 23.578C36.7347 25.1035 37.068 26.8064 36.9844 28.5156C36.9008 30.2248 36.4033 31.88 35.5418 33.315C35.4636 33.4337 35.3596 33.5298 35.239 33.5947C35.1184 33.6597 34.9849 33.6916 34.8503 33.6875C34.6234 33.6872 34.406 33.5895 34.2456 33.4158C34.0852 33.242 33.9949 33.0065 33.9947 32.7608V28C33.9996 26.5581 33.5634 25.155 32.7542 24.01C31.945 22.865 30.8084 22.0426 29.522 21.6713C28.2356 21.3001 26.8719 21.4008 25.644 21.9579C24.416 22.515 23.3931 23.4969 22.7349 24.7504C22.0768 26.0038 21.8206 27.4581 22.0063 28.8859C22.192 30.3137 22.8092 31.6347 23.7614 32.6424C24.7137 33.6501 25.9473 34.2878 27.2695 34.4557C28.5917 34.6236 29.9281 34.3124 31.0697 33.5707C31.2435 34.5187 31.7151 35.3722 32.4044 35.986C33.0937 36.5998 33.958 36.936 34.8503 36.9375C35.4847 36.9439 36.1104 36.778 36.6704 36.4551C37.2304 36.1321 37.7068 35.6624 38.056 35.0887C39.5627 32.5925 40.2255 29.6085 39.9321 26.6431ZM27.9935 31.25C27.4001 31.25 26.8199 31.0594 26.3265 30.7023C25.833 30.3452 25.4485 29.8376 25.2213 29.2437C24.9942 28.6499 24.9348 27.9964 25.0506 27.366C25.1664 26.7355 25.4522 26.1564 25.8718 25.7019C26.2914 25.2474 26.8261 24.9378 27.4081 24.8124C27.9902 24.687 28.5935 24.7514 29.1418 24.9974C29.6901 25.2434 30.1587 25.6599 30.4884 26.1944C30.8181 26.7289 30.9941 27.3572 30.9941 28C30.9933 28.8617 30.6769 29.6878 30.1143 30.2971C29.5518 30.9064 28.7891 31.2491 27.9935 31.25Z" fill="#FFCD00"/>
</svg>
